<svg xmlns="http://www.w3.org/2000/svg" viewBox="0 0 200 200">
  <!-- Light background -->
  <rect width="200" height="200" fill="#f8f9fa"/>
  
  <!-- Location pin outline -->
  <path d="M100 10 C55 10, 20 45, 20 90 C20 135, 100 190, 100 190 C100 190, 180 135, 180 90 C180 45, 145 10, 100 10" 
        fill="#3498db" opacity="0.9"/>
  
  <!-- Basketball -->
  <circle cx="100" cy="90" r="50" fill="#e67e22"/>
  <path d="M100 40 C100 60, 100 120, 100 140" stroke="#f8f9fa" stroke-width="4" fill="none"/>
  <path d="M50 90 C70 90, 130 90, 150 90" stroke="#f8f9fa" stroke-width="4" fill="none"/>
  <path d="M60 55 C80 70, 120 110, 140 125" stroke="#f8f9fa" stroke-width="4" fill="none"/>
  <path d="M60 125 C80 110, 120 70, 140 55" stroke="#f8f9fa" stroke-width="4" fill="none"/>
</svg>
